<svg width="128" height="128" viewBox="0 0 128 128" fill="none" xmlns="http://www.w3.org/2000/svg">
<g clip-path="url(#clip0_120_293)">
<path d="M58.8147 121.393C52.1645 120.732 46.6515 119.379 41.2023 117.069C25.2238 110.295 12.5359 96.0304 8.34397 80.1275C6.77726 74.1839 6.35296 70.1491 6.54189 62.9912C6.72917 55.8959 7.67077 50.4066 9.651 44.8659C14.4995 31.2994 22.5482 21.4377 34.53 14.3828C40.3155 10.9762 47.049 8.52557 54.4529 7.13185C58.1241 6.44078 66.169 6.27134 70.6904 6.78987C81.4858 8.02792 91.7356 12.1654 99.9573 18.6036C102.666 20.7251 107.234 25.3549 109.208 27.98C111.784 31.4063 112.968 33.3113 115.057 37.3959C119.917 46.8938 121.778 55.3985 121.467 66.685C121.324 71.8403 120.9 75.0066 119.755 79.4478C117.336 88.828 112.835 96.69 105.782 103.852C100.651 109.063 95.7823 112.593 89.6 115.588C80.9333 119.786 72.8711 121.601 63.2944 121.51C61.2844 121.49 59.2686 121.438 58.8147 121.393ZM69.4307 112.206C72.6903 111.815 76.1963 111.056 79.2091 110.088C82.1888 109.13 87.7472 106.511 89.9369 105.034L91.2336 104.159L91.2947 92.195L91.3558 80.2314H89.1138H86.8718V90.5078V100.784L82.6036 100.721L78.3354 100.657L78.3723 97.1555C78.3926 95.2296 78.3346 90.6339 78.2432 86.9427L78.0771 80.2314H75.0476H72.018L72.0211 83.2077L72.0241 86.184L72.8664 86.7244C73.9785 87.4378 74.7071 89.0371 74.5497 90.4194C74.4213 91.5475 73.4811 92.9523 72.5834 93.3572C72.0321 93.6059 72.0183 93.6818 72.0183 96.4535V99.2949L72.9024 99.8592C74.1174 100.635 74.6606 101.752 74.5496 103.246C74.4393 104.731 73.7009 105.811 72.3953 106.398C71.1146 106.974 70.2163 106.953 68.9461 106.318C66.2902 104.989 66.0401 101.59 68.4676 99.8134L69.189 99.2853L69.1859 96.4696L69.1829 93.6539L68.3981 93.1509C66.2977 91.8046 66.2921 88.0351 68.3886 86.7522L69.1887 86.2626V83.2446V80.2266L58.52 80.2874L47.8512 80.3481L47.7875 85.041L47.7238 89.734L48.6348 90.3309C51.7725 92.3867 50.2569 97.2722 46.4813 97.2722C44.1132 97.2722 42.5453 95.7232 42.5472 93.3852C42.5485 92.0088 43.1664 90.9089 44.3167 90.2369L45.1398 89.7561V84.9938V80.2314H41.9923H38.8449L38.7406 88.46C38.6833 92.9857 38.6938 98.7348 38.7641 101.236L38.8918 105.783L41.2495 107.01C42.5463 107.685 44.6955 108.657 46.0255 109.17C48.4273 110.097 52.6772 111.278 53.6114 111.278C54.0982 111.278 54.0992 111.255 54.0992 99.3731V87.4679H58.461H62.8228V99.9567V112.446H65.1278C66.3956 112.446 68.3319 112.338 69.4307 112.206ZM30.0503 89.4521V80.2314H26.9852H23.9201V75.6794V71.1274H32.9974H42.0747V67.6258V64.1243H28.8714H15.6681V66.2005C15.6681 76.5891 19.541 87.0532 26.3671 95.1075C27.8656 96.8757 29.6898 98.6728 29.9861 98.6728C30.0214 98.6728 30.0503 94.5235 30.0503 89.4521ZM104.055 91.9255C106.305 88.6736 109.742 81.7993 109.742 80.5522C109.742 80.2902 108.833 80.2314 104.791 80.2314H99.8394L99.8498 88.5767L99.8603 96.922L101.25 95.4469C102.014 94.6355 103.277 93.0509 104.055 91.9255ZM78.1482 67.6258V64.1243H64.4733H50.7984V67.6258V71.1274H64.4733H78.1482V67.6258ZM111.95 69.9018C112.829 62.8306 112.067 54.9552 109.868 48.3674C107.484 41.2261 103.703 34.9318 98.6876 29.7535C91.2575 22.0822 81.7097 17.2637 70.9571 15.7587C67.7447 15.3091 59.0198 15.3797 56.1033 15.8789C48.8885 17.1139 42.9857 19.4121 37.2108 23.2345C28.9011 28.7348 22.7885 36.3518 18.8729 46.0857C18.1051 47.9944 16.3834 53.9578 16.3776 54.7285C16.3758 54.9553 17.8989 55.0203 23.2128 55.0203H30.0503V44.8659V34.7114H34.4452H38.8401L38.7606 40.2555C38.7169 43.3048 38.702 47.8743 38.7275 50.41L38.7739 55.0203H41.9569H45.1398V51.075V47.1296L44.3168 46.6488C43.1171 45.948 42.5481 44.8862 42.5481 43.3485C42.5481 41.8527 43.0821 40.8119 44.1787 40.1706L44.9041 39.7463V36.4178V33.0893L44.2195 32.7389C42.5471 31.8826 41.8949 29.1572 42.9557 27.4578C44.159 25.53 46.9674 25.029 48.8023 26.4147C49.9113 27.2521 50.4088 28.4159 50.2698 29.8477C50.146 31.1241 49.6162 32.0332 48.6894 32.5598L48.0356 32.9314L47.8977 36.2141L47.7598 39.4968L48.6968 40.2807C49.8756 41.2669 50.3269 42.1235 50.3269 43.3748C50.3269 44.5469 49.4674 46.135 48.5781 46.6063L47.9691 46.929V50.9746V55.0203H51.0342H54.0992V41.7145V28.4086H58.4591H62.819L62.8799 41.6561L62.9408 54.9036L66.0648 54.9687L69.1888 55.0339V50.9859V46.9379L68.4674 46.4098C67.3816 45.615 66.8329 44.5646 66.8319 43.2786C66.8306 41.9067 67.279 41.0003 68.3633 40.1815L69.1888 39.5581V34.7965V30.0348L68.1524 29.0467C66.9625 27.9121 66.5412 26.7633 66.8376 25.4619C67.5298 22.4234 71.0886 21.3649 73.5158 23.4757C75.2781 25.0083 74.8822 28.3883 72.8109 29.4927L72.0181 29.9154V34.7454V39.5755L72.8506 40.0849C73.8392 40.6898 74.6116 42.0701 74.6116 43.2318C74.6116 44.3962 73.7955 45.8579 72.8306 46.4215L72.0181 46.8962V50.9582V55.0203H75.0831H78.1482V42.2981V29.5758H82.51H86.8718V42.3053V55.0347L89.7276 54.9691L92.5833 54.9036L92.5455 51.8267L92.5076 48.7499L91.6013 47.8526C90.4399 46.7027 89.9925 45.3311 90.371 44.0804C91.1311 41.5685 93.6373 40.5546 96.075 41.7728C98.6684 43.0688 98.9082 46.6529 96.5022 48.1567L95.5955 48.7234V51.8719V55.0203H99.8394H104.083V59.5723V64.1243H95.4776H86.8718V67.6258V71.1274H99.335H111.798L111.95 69.9018Z" fill="#F9F9F9"/>
</g>
<defs>
<clipPath id="clip0_120_293">
<rect width="115" height="115.026" fill="white" transform="translate(6.5 6.48718)"/>
</clipPath>
</defs>
</svg>
